<?xml version="1.0" encoding="utf-8"?>
<svg xmlns="http://www.w3.org/2000/svg" xmlns:xlink="http://www.w3.org/1999/xlink" style="margin: auto; background: none; display: block; shape-rendering: auto;" width="800px" height="800px" viewBox="0 0 100 100" preserveAspectRatio="xMidYMid">
<g transform="rotate(0 50 50)">
  <rect x="47" y="0" rx="3" ry="21" width="6" height="100" fill="#6a6a6a">
    <animate attributeName="opacity" values="1;0" keyTimes="0;1" dur="4.166666666666666s" begin="-3.7037037037037033s" repeatCount="indefinite"></animate>
  </rect>
</g><g transform="rotate(40 50 50)">
  <rect x="47" y="0" rx="3" ry="21" width="6" height="100" fill="#979797">
    <animate attributeName="opacity" values="1;0" keyTimes="0;1" dur="4.166666666666666s" begin="-3.2407407407407405s" repeatCount="indefinite"></animate>
  </rect>
</g><g transform="rotate(80 50 50)">
  <rect x="47" y="0" rx="3" ry="21" width="6" height="100" fill="#bdbdbd">
    <animate attributeName="opacity" values="1;0" keyTimes="0;1" dur="4.166666666666666s" begin="-2.7777777777777777s" repeatCount="indefinite"></animate>
  </rect>
</g><g transform="rotate(120 50 50)">
  <rect x="47" y="0" rx="3" ry="21" width="6" height="100" fill="#e2e2e2">
    <animate attributeName="opacity" values="1;0" keyTimes="0;1" dur="4.166666666666666s" begin="-2.314814814814815s" repeatCount="indefinite"></animate>
  </rect>
</g><g transform="rotate(160 50 50)">
  <rect x="47" y="0" rx="3" ry="21" width="6" height="100" fill="#f8f8f8">
    <animate attributeName="opacity" values="1;0" keyTimes="0;1" dur="4.166666666666666s" begin="-1.8518518518518516s" repeatCount="indefinite"></animate>
  </rect>
</g><g transform="rotate(200 50 50)">
  <rect x="47" y="0" rx="3" ry="21" width="6" height="100" fill="#6a6a6a">
    <animate attributeName="opacity" values="1;0" keyTimes="0;1" dur="4.166666666666666s" begin="-1.3888888888888888s" repeatCount="indefinite"></animate>
  </rect>
</g><g transform="rotate(240 50 50)">
  <rect x="47" y="0" rx="3" ry="21" width="6" height="100" fill="#979797">
    <animate attributeName="opacity" values="1;0" keyTimes="0;1" dur="4.166666666666666s" begin="-0.9259259259259258s" repeatCount="indefinite"></animate>
  </rect>
</g><g transform="rotate(280 50 50)">
  <rect x="47" y="0" rx="3" ry="21" width="6" height="100" fill="#bdbdbd">
    <animate attributeName="opacity" values="1;0" keyTimes="0;1" dur="4.166666666666666s" begin="-0.4629629629629629s" repeatCount="indefinite"></animate>
  </rect>
</g><g transform="rotate(320 50 50)">
  <rect x="47" y="0" rx="3" ry="21" width="6" height="100" fill="#e2e2e2">
    <animate attributeName="opacity" values="1;0" keyTimes="0;1" dur="4.166666666666666s" begin="0s" repeatCount="indefinite"></animate>
  </rect>
</g>
<!-- [ldio] generated by https://loading.io/ --></svg>